<svg xmlns="http://www.w3.org/2000/svg" viewBox="0 0 204.61 75.84"><title>mountains</title><g id="Layer_2" data-name="Layer 2"><g id="Layer_2-2" data-name="Layer 2"><path d="M37.33,55.28c4.54-2.24,9.29-8.86,14.17-10C57,44,59.58,49.41,64.57,51.86a32.73,32.73,0,0,0-.47-7.13c4.69-.3,4.35-2.75,7.05-5,.73-.6,2.59-1.66,3-2.28.16-.24,2.77-4.44,2.5-4.22,6.75-5.58,10.8-.82,17.91-.75-2.15-4.31-.24-6.18,3.55-7,2,.71,3.72.65,5.69,1.1-3.23-.77-6.55-4.69-6.48-8,.1-4.37,3.93-4.4,4.11-8.59a8.41,8.41,0,0,1,3.8,0c-.61,4.34,3.18,7.45,6.67,8a9.74,9.74,0,0,0,.2,2.47c2.17.18,4.25.93,6.45.87,1.29,2.57,1.18,1.9,3.36,3.14-1.43-5.17-6.72-7-10.11-11.06-2.5-3-4.88-10.16-7.63-12.22-5-3.7-6.91,1.68-10.67,5.54-3.26,3.33-8.06,6.22-11,9.66-3.11,3.66-3.35,8.43-7.15,12.17A65.45,65.45,0,0,1,60,39.44c-4.7,2.21-8,1.82-12.15,5-3.25,2.49-7.58,7.3-9.16,10.84"/><path d="M74,41.94c6.11-.5,11.44-4.79,17.23-5.91a9.81,9.81,0,0,1-2.33,7.14c3.28,0,4.56-2.76,7.25-3.74,2.3-.84,5.53-.1,7.72-.74a20.1,20.1,0,0,1,.9,7.83c3.16-.89,6.21-5.84,9.38-7.71,3.75-2.22,7-3.57,11.85-2.92,9.19,1.23,8.7,11.42,18.46,10.75-4.13-1.79-12.75-9.17-13-14-.34-6.32,4.38-14.85,10.43-7.35,2.13,2.64,1.68,6.08,4.79,8.55,2.61,2.07,6.5,2.11,9.33,3.95,4.88,3.17,7.7,9.34,13.35,11.23.07-1.53,1.13-3.76.75-5.65,10.47,3.92,22.58,17,34.51,16.45-6.87-4.85-15.06-7.65-21.76-13.35-3.16-2.68-5.61-4.36-8.18-7.83-.68-.92-2.36-5.08-3.3-5.38-4.17-1.31-1.7,1.86-4.05,3.4-1.65,1.07-.12,3.34-3.32,3.19-1.24,0-3.57-3.18-4.48-4a53.44,53.44,0,0,0-10.2-7.74c-6.12-3.51-11-12.25-17.15-14.73-2,3.31-5.43,7.61-9,9.17-1.07-.49-1.94-.2-3-.45-1.88,5.05-7.88,3.88-12,6-4.56,2.4-7,7.05-12.18,8.27-.37-10.19-19.45,2.42-21.3,5.58"/><path d="M38,66.61a59.76,59.76,0,0,0,10.67-3.35c1.49-.58,3.79-.81,5.2-1.3,1.14-.41,1.7-2.75,3.45-3.23,1.33-.37,2.91,2.25,4.7,1.89s2.35-1.8,4-2.69c3-1.64,5.33-4,8.55-5.25.53,4.4-3.47,7.13-2.45,11.88,2.77-2.14,2.6-5.9,4.4-8.76s3.82-3.71,5.6-6.41C89,48.27,99.49,53.52,105.3,56c3.9,1.65,8.9,2.15,12.7,4.44,3.22,1.95,5.23,5.29,9.77,4.82-5,2.67-15.3,5.47-18.22,10.6,8.54-1.08,16.44-9,25-9.8,1.83,3.49,5.2,2.57,6.29-1.35a5.4,5.4,0,0,0,5.72-1.35c.41,2.45,1.26,3,2.7,4.55-1.88-10.87,12.39-1.28,17.41,1.24,7,3.53,15.37,4.8,23.15,6.16-8.26-1.94-17.24-7.19-25.17-10.68-5.39-2.37-15.68-6.83-17.94-12.08-9.63,8.16-14,9.87-25.36,4.08-8.33-4.24-18.79-7.53-28.14-11.15-6-2.34-6.33-.41-12.5,1.2-2.16.56-3.78-.48-6.19.6-1.89.85-4.22,4-6.35,5.2-5.35,3-10.32,2.3-15.48,4.28S43.85,63.91,40,67.28"/><path d="M114.67,54.61c10.66-2.83,24-2.59,29.48-13.92,2.78.53,4.48,3.11,7.2,4,2.16.66,2.81-1.6,5.8.1,4.72,2.69,6.37,8.73,12.18,11.2a93.89,93.89,0,0,0,32.8,6.67c-16.55,0-43.76,1.8-51.63-15.9-.79,1.06-3,2.08-3.82,3.31-.58-1.37-2-1.84-2.11-4A65.9,65.9,0,0,1,114,56.61"/><path d="M.52,58.63c8.24-4.46,18.54-4.08,22.79-21.94,2.15.83,3.46,4.9,5.56,6.22,1.67,1.05,2.18-2.51,4.49.17,3.65,4.23,4.92,13.75,9.42,17.65,7.76,6.74,17.85,10.35,25.35,10.52-12.79,0-33.83,2.83-39.92-25.07-.6,1.67-2.33,3.28-2.94,5.22-.46-2.16-1.53-2.91-1.64-6.35C16.49,54.56,8.53,60.26,0,61.79"/></g></g></svg>